<svg xmlns="http://www.w3.org/2000/svg" width="111.76cm" height="22.225cm" viewBox="0 0 3168 630">
  <g>
    <rect x="-18" y="-18" width="3204" height="666" fill="none" stroke="#231f20" stroke-miterlimit="2.613"/>
    <g>
      <path d="M1777.836,143.218l-52.787,131.043h-17.264L1655,143.218h15.366a6.349,6.349,0,0,1,4.113,1.277,8.014,8.014,0,0,1,2.395,3.285l35.071,89.066q1.264,3.285,2.486,7.209t2.214,8.214q.9-4.29,1.989-8.214t2.35-7.209l34.98-89.066a7.115,7.115,0,0,1,2.305-3.194,6.284,6.284,0,0,1,4.113-1.368Z" fill="#fff"/>
      <path d="M1891.363,274.261h-17.174a8,8,0,0,1-7.5-4.107L1834.6,224.709a9.622,9.622,0,0,0-3.345-3.24,11.962,11.962,0,0,0-5.423-.958h-12.564v53.75h-19.253V143.218h37.421a79.272,79.272,0,0,1,21.648,2.6,41.905,41.905,0,0,1,15,7.392,29.362,29.362,0,0,1,8.767,11.544A38.63,38.63,0,0,1,1879.7,179.9a39.2,39.2,0,0,1-2.079,12.868,33.872,33.872,0,0,1-6.1,10.813,38.55,38.55,0,0,1-9.807,8.259,47.832,47.832,0,0,1-13.106,5.293,19.985,19.985,0,0,1,6.237,6.114Zm-60.561-67.9a42.485,42.485,0,0,0,13.062-1.825,26.441,26.441,0,0,0,9.445-5.155,21.162,21.162,0,0,0,5.695-7.94,26.474,26.474,0,0,0,1.9-10.175q0-11.313-7.367-17.065t-22.1-5.749h-18.168v47.909Z" fill="#fff"/>
      <path d="M2015.014,274.261H2000.19a6.522,6.522,0,0,1-4.158-1.278,7.167,7.167,0,0,1-2.35-3.285L1982.2,239.31h-57.217L1913.507,269.7a7.41,7.41,0,0,1-2.35,3.149,6.33,6.33,0,0,1-4.158,1.414h-14.824l51.7-131.043h19.433Zm-38.054-48.823-19.253-50.829a113.811,113.811,0,0,1-4.158-13.14q-1,3.924-2.033,7.3t-2.034,6.023l-19.163,50.646Zm11.75-120.366-29.466,26.1a8.11,8.11,0,0,1-2.8,1.642,12.424,12.424,0,0,1-3.345.365h-12.744l20.427-25a8.682,8.682,0,0,1,1.582-1.689,6.035,6.035,0,0,1,1.672-.912,8.14,8.14,0,0,1,2.079-.41q1.174-.09,2.712-.092Z" fill="#fff"/>
      <path d="M2106.938,159.461H2065.72v114.8h-19.162v-114.8h-41.4V143.218h101.778Z" fill="#fff"/>
      <path d="M2231.943,143.218V274.261h-9.762a7.7,7.7,0,0,1-3.751-.822,11.111,11.111,0,0,1-3.028-2.646l-73.3-95.728q.18,2.464.316,4.837t.136,4.472v89.887h-16.9V143.218h9.943a9.329,9.329,0,0,1,3.8.593,8.331,8.331,0,0,1,2.8,2.692l73.487,95.818q-.271-2.645-.407-5.156t-.136-4.7V143.218Z" fill="#fff"/>
      <path d="M2283.373,274.261h-19.344V143.218h19.344Z" fill="#fff"/>
      <path d="M2406.03,246.154a3.68,3.68,0,0,1,2.8,1.278l7.593,8.4a54.3,54.3,0,0,1-19.389,14.693q-11.436,5.2-27.523,5.2a63.883,63.883,0,0,1-25.535-4.928,56.224,56.224,0,0,1-19.524-13.779,62.088,62.088,0,0,1-12.519-21.172,79.592,79.592,0,0,1-4.429-27.1,76.1,76.1,0,0,1,4.655-27.1,62.315,62.315,0,0,1,13.061-21.171,58.883,58.883,0,0,1,20.112-13.78,66.078,66.078,0,0,1,25.9-4.928,60.741,60.741,0,0,1,43.3,16.7l-6.327,9.034a5.446,5.446,0,0,1-1.582,1.643,4.363,4.363,0,0,1-2.485.638,7.091,7.091,0,0,1-4.023-1.733,59.413,59.413,0,0,0-6.056-3.879,47.568,47.568,0,0,0-9.265-3.878,46.475,46.475,0,0,0-13.739-1.734,44.79,44.79,0,0,0-17.716,3.423,39.2,39.2,0,0,0-13.875,9.855,44.842,44.842,0,0,0-9.039,15.787,64.9,64.9,0,0,0-3.208,21.126A62.662,62.662,0,0,0,2330.555,230a46.642,46.642,0,0,0,9.22,15.787,39.061,39.061,0,0,0,13.829,9.856,43.491,43.491,0,0,0,17.174,3.376,67.117,67.117,0,0,0,10.078-.684,42.914,42.914,0,0,0,8.226-2.054,35.885,35.885,0,0,0,7.1-3.513,47.515,47.515,0,0,0,6.6-5.156,7.282,7.282,0,0,1,1.536-1.05A3.773,3.773,0,0,1,2406.03,246.154Z" fill="#fff"/>
      <path d="M2542.876,274.261h-14.823a6.52,6.52,0,0,1-4.158-1.278,7.167,7.167,0,0,1-2.35-3.285l-11.48-30.388h-57.216L2441.37,269.7a7.41,7.41,0,0,1-2.35,3.149,6.33,6.33,0,0,1-4.158,1.414h-14.824l51.7-131.043h19.434Zm-38.053-48.823-19.253-50.829a113.811,113.811,0,0,1-4.158-13.14q-1,3.924-2.034,7.3t-2.033,6.023l-19.163,50.646Z" fill="#fff"/>
      <path d="M1273.919,354.262a72.086,72.086,0,0,1,21.693,2.92,41.883,41.883,0,0,1,15.276,8.258,32.765,32.765,0,0,1,8.994,12.913,46.117,46.117,0,0,1,2.938,16.791,44.179,44.179,0,0,1-3.164,16.928,36.253,36.253,0,0,1-9.31,13.278,42.489,42.489,0,0,1-15.321,8.624,66.7,66.7,0,0,1-21.106,3.056h-20.066v48.275H1234.6V354.262Zm0,67.437a39.487,39.487,0,0,0,12.881-1.916,25.627,25.627,0,0,0,9.31-5.429,22.558,22.558,0,0,0,5.649-8.4,29.614,29.614,0,0,0,1.9-10.814q0-11.953-7.366-18.8t-22.372-6.844h-20.066v52.2Z" fill="#fff"/>
      <path d="M1464.91,419.783a75.468,75.468,0,0,1-4.655,26.966,62.2,62.2,0,0,1-13.151,21.172,59.2,59.2,0,0,1-20.338,13.825,72.54,72.54,0,0,1-52.561,0,58.62,58.62,0,0,1-20.338-13.825,63.076,63.076,0,0,1-13.151-21.172,79.579,79.579,0,0,1,0-53.887,62.977,62.977,0,0,1,13.151-21.216,59.174,59.174,0,0,1,20.338-13.872,71.928,71.928,0,0,1,52.561,0,59.768,59.768,0,0,1,20.338,13.872,62.11,62.11,0,0,1,13.151,21.216A75.587,75.587,0,0,1,1464.91,419.783Zm-19.7,0a65.041,65.041,0,0,0-3.164-20.989,44.845,44.845,0,0,0-8.994-15.787,38.986,38.986,0,0,0-14.1-9.947,50.993,50.993,0,0,0-36.968,0,39.4,39.4,0,0,0-14.146,9.947,44.442,44.442,0,0,0-9.04,15.787,71.37,71.37,0,0,0,0,42.023,44.5,44.5,0,0,0,9.04,15.743,38.9,38.9,0,0,0,14.146,9.9,51.618,51.618,0,0,0,36.968,0,38.49,38.49,0,0,0,14.1-9.9,44.9,44.9,0,0,0,8.994-15.743A64.919,64.919,0,0,0,1445.206,419.783Z" fill="#fff"/>
      <path d="M1563.342,468.97v16.335h-74.3V354.262H1508.3V468.97Z" fill="#fff"/>
      <path d="M1615.587,433.472v51.833h-19.162V433.472l-47.545-79.21h16.9a6.314,6.314,0,0,1,4.067,1.231,9.478,9.478,0,0,1,2.531,3.239l28.2,49.005q1.716,3.376,3.118,6.388t2.486,5.932q.993-2.921,2.305-5.932t3.028-6.388l28.11-49a11.669,11.669,0,0,1,2.486-3.056,5.806,5.806,0,0,1,4.023-1.414h16.993Z" fill="#fff"/>
      <path d="M1777.836,421.517v51.1a73.426,73.426,0,0,1-20.97,10.631,80.038,80.038,0,0,1-24.224,3.514,78.037,78.037,0,0,1-28.428-4.928,62.474,62.474,0,0,1-21.648-13.779,60.416,60.416,0,0,1-13.784-21.172,73.539,73.539,0,0,1-4.836-27.1,76.743,76.743,0,0,1,4.655-27.24,58.5,58.5,0,0,1,34.348-34.859,74.758,74.758,0,0,1,27.7-4.883,82.206,82.206,0,0,1,14.417,1.186,67.329,67.329,0,0,1,12.338,3.377,59.859,59.859,0,0,1,10.53,5.247,62.694,62.694,0,0,1,8.994,6.89l-5.514,8.761a5.491,5.491,0,0,1-3.344,2.646,5.645,5.645,0,0,1-4.52-1q-2.351-1.37-5.2-3.194a39.439,39.439,0,0,0-6.779-3.376,56.813,56.813,0,0,0-9.175-2.647,61.267,61.267,0,0,0-12.383-1.1,50.463,50.463,0,0,0-19.253,3.513,40.465,40.465,0,0,0-14.642,10.084,45.074,45.074,0,0,0-9.311,15.833,62.358,62.358,0,0,0-3.254,20.761A63.382,63.382,0,0,0,1687,441.365a45.467,45.467,0,0,0,9.717,16.153,41.12,41.12,0,0,0,15.276,10.083,55.485,55.485,0,0,0,20.111,3.467,60.892,60.892,0,0,0,8.09-.5,57.325,57.325,0,0,0,7.186-1.414,48.892,48.892,0,0,0,6.644-2.281q3.207-1.369,6.372-3.012V436.392h-19.162a4.044,4.044,0,0,1-2.938-1.095,3.655,3.655,0,0,1-1.13-2.738V421.517Z" fill="#fff"/>
      <path d="M1901.125,485.305h-17.174a8,8,0,0,1-7.5-4.107l-32.088-45.445a9.628,9.628,0,0,0-3.344-3.24,11.969,11.969,0,0,0-5.424-.958h-12.564v53.75h-19.253V354.262H1841.2a79.272,79.272,0,0,1,21.648,2.6,41.905,41.905,0,0,1,15,7.392,29.374,29.374,0,0,1,8.768,11.544,38.648,38.648,0,0,1,2.847,15.148,39.187,39.187,0,0,1-2.079,12.867,33.883,33.883,0,0,1-6.1,10.814,38.567,38.567,0,0,1-9.807,8.259,47.839,47.839,0,0,1-13.107,5.293,19.974,19.974,0,0,1,6.237,6.114Zm-60.561-67.895a42.485,42.485,0,0,0,13.062-1.825,26.433,26.433,0,0,0,9.445-5.155,21.169,21.169,0,0,0,5.7-7.94,26.476,26.476,0,0,0,1.9-10.176q0-11.313-7.367-17.064t-22.1-5.749h-18.168V417.41Z" fill="#fff"/>
      <path d="M2024.776,485.305h-14.824a6.522,6.522,0,0,1-4.158-1.278,7.167,7.167,0,0,1-2.35-3.285l-11.479-30.388h-57.216l-11.48,30.388a7.41,7.41,0,0,1-2.35,3.149,6.328,6.328,0,0,1-4.158,1.414h-14.823l51.7-131.043h19.433Zm-38.054-48.823-19.253-50.829a113.831,113.831,0,0,1-4.157-13.14q-1,3.924-2.034,7.3t-2.034,6.024l-19.162,50.646Z" fill="#fff"/>
      <path d="M2060.3,370.049v43.893h52.064v15.787H2060.3v55.576h-19.343V354.262H2121.4v15.787Z" fill="#fff"/>
      <path d="M2162.525,485.305h-19.343V354.262h19.343Z" fill="#fff"/>
      <path d="M2285.182,457.2a3.68,3.68,0,0,1,2.8,1.278l7.593,8.395a54.281,54.281,0,0,1-19.389,14.692q-11.436,5.2-27.523,5.2a63.883,63.883,0,0,1-25.535-4.928,56.224,56.224,0,0,1-19.524-13.779,62.088,62.088,0,0,1-12.519-21.172,79.592,79.592,0,0,1-4.429-27.1,76.1,76.1,0,0,1,4.655-27.1,62.315,62.315,0,0,1,13.061-21.171,58.883,58.883,0,0,1,20.112-13.78,66.078,66.078,0,0,1,25.9-4.928,60.741,60.741,0,0,1,43.3,16.7l-6.327,9.034a5.455,5.455,0,0,1-1.581,1.643,4.376,4.376,0,0,1-2.486.638,7.091,7.091,0,0,1-4.023-1.733,59.413,59.413,0,0,0-6.056-3.879,47.568,47.568,0,0,0-9.265-3.878,46.475,46.475,0,0,0-13.739-1.734,44.79,44.79,0,0,0-17.716,3.423,39.2,39.2,0,0,0-13.875,9.855,44.825,44.825,0,0,0-9.038,15.787,64.871,64.871,0,0,0-3.209,21.126,62.662,62.662,0,0,0,3.344,21.263,46.642,46.642,0,0,0,9.22,15.787,39.059,39.059,0,0,0,13.829,9.855,43.492,43.492,0,0,0,17.174,3.377,67.141,67.141,0,0,0,10.079-.684,42.922,42.922,0,0,0,8.225-2.054,35.869,35.869,0,0,0,7.1-3.514,47.423,47.423,0,0,0,6.6-5.155,7.263,7.263,0,0,1,1.537-1.05A3.766,3.766,0,0,1,2285.182,457.2Z" fill="#fff"/>
      <path d="M2334.261,410.931h6.327a14.885,14.885,0,0,0,5.559-.867,9.759,9.759,0,0,0,3.842-2.965l41.308-48.457a11.7,11.7,0,0,1,4.067-3.422,12.285,12.285,0,0,1,5.152-.958h16.451l-48.087,55.847a23.2,23.2,0,0,1-3.57,3.833,21.416,21.416,0,0,1-3.661,2.464,17.9,17.9,0,0,1,8.677,7.028l49.986,61.871H2403.59a15.4,15.4,0,0,1-3.119-.274,8.551,8.551,0,0,1-2.26-.776,7.613,7.613,0,0,1-1.717-1.232,8.847,8.847,0,0,1-1.4-1.734l-42.754-51.1a14.966,14.966,0,0,0-1.808-2.008,7.379,7.379,0,0,0-2.079-1.324,11.051,11.051,0,0,0-2.711-.73,25.152,25.152,0,0,0-3.616-.228h-7.864v59.408h-19.253V354.262h19.253Z" fill="#fff"/>
      <path d="M2542.876,485.305h-14.823a6.52,6.52,0,0,1-4.158-1.278,7.167,7.167,0,0,1-2.35-3.285l-11.48-30.388h-57.216l-11.479,30.388a7.41,7.41,0,0,1-2.35,3.149,6.33,6.33,0,0,1-4.158,1.414h-14.824l51.7-131.043h19.434Zm-38.053-48.823-19.253-50.829a113.811,113.811,0,0,1-4.158-13.14q-1,3.924-2.034,7.3t-2.033,6.024l-19.163,50.646Zm11.75-120.366-29.467,26.1a8.107,8.107,0,0,1-2.8,1.642,12.424,12.424,0,0,1-3.345.365h-12.745l20.428-25a8.652,8.652,0,0,1,1.582-1.689,6.021,6.021,0,0,1,1.672-.912,8.132,8.132,0,0,1,2.079-.41q1.174-.092,2.712-.092Z" fill="#fff"/>
    </g>
    <g>
      <circle cx="2717" cy="179.43" r="36" fill="#fff"/>
      <circle cx="2807" cy="179.43" r="36" fill="#fff"/>
      <circle cx="2897" cy="179.43" r="36" fill="#fff"/>
      <circle cx="2987" cy="179.43" r="36" fill="#fff"/>
      <circle cx="2897" cy="269.43" r="36" fill="#fff200"/>
      <circle cx="2807" cy="269.43" r="36" fill="#ec008c"/>
      <circle cx="2717" cy="269.43" r="36" fill="#fff"/>
      <circle cx="2987" cy="269.43" r="36" fill="#d1d3d4"/>
      <circle cx="2717" cy="359.43" r="36" fill="#fff"/>
      <circle cx="2807" cy="359.43" r="36" fill="#fff"/>
      <circle cx="2897" cy="359.43" r="36" fill="#fff"/>
      <circle cx="2987" cy="359.43" r="36" fill="#fff"/>
      <circle cx="2717" cy="449.43" r="36" fill="#fff"/>
    </g>
  </g>
  <g>
    <g>
      <rect x="2610" y="72" width="72" height="72" fill="#95979a"/>
      <rect x="2610" y="486" width="72" height="72" fill="#bcbec0"/>
      <rect x="2538" y="72" width="72" height="72" fill="#bcbec0"/>
      <rect x="2538" y="486" width="72" height="72" fill="#95979a"/>
      <rect x="3023.979" y="72" width="72" height="72" fill="#bcbec0"/>
      <rect x="72" y="72.081" width="72" height="72" fill="#95979a"/>
      <rect x="2610" width="72" height="72" fill="#bcbec0"/>
      <rect x="2538" width="72" height="72" fill="#95979a"/>
      <rect x="3023.979" width="72" height="72" fill="#95979a"/>
      <rect x="72" width="72" height="72" fill="#bcbec0"/>
      <rect x="72" y="486" width="72" height="72" fill="#bcbec0"/>
      <rect x="3023.979" y="486" width="72" height="72" fill="#95979a"/>
      <rect x="2610" y="558" width="72" height="72" fill="#95979a"/>
      <rect x="2538" y="558" width="72" height="72" fill="#bcbec0"/>
      <rect x="72" y="558" width="72" height="72" fill="#95979a"/>
      <rect y="72.081" width="72" height="72" fill="#bcbec0"/>
      <rect width="72" height="72" fill="#95979a"/>
      <rect y="486" width="72" height="72" fill="#95979a"/>
      <rect y="558" width="72" height="72" fill="#bcbec0"/>
      <rect x="3023.979" y="558" width="72" height="72" fill="#bcbec0"/>
      <rect x="3096" y="72" width="72" height="72" fill="#95979a"/>
      <rect x="3096" width="72" height="72" fill="#bcbec0"/>
      <rect x="3096" y="486" width="72" height="72" fill="#bcbec0"/>
      <rect x="3096" y="558" width="72" height="72" fill="#95979a"/>
    </g>
    <line x1="-0.013" y1="-3203.969" x2="-0.013" y2="1655.992" fill="none" stroke="#231f20" stroke-miterlimit="10" stroke-width="0.5"/>
    <line x1="17.987" y1="-3203.969" x2="17.987" y2="1655.992" fill="none" stroke="#231f20" stroke-miterlimit="10" stroke-width="0.25"/>
    <rect x="35.862" y="-3203.969" width="0.25" height="4859.961" fill="#231f20"/>
    <line x1="53.987" y1="-3203.969" x2="53.987" y2="1655.992" fill="none" stroke="#231f20" stroke-miterlimit="10" stroke-width="0.25"/>
    <line x1="71.987" y1="-3203.969" x2="71.987" y2="1655.992" fill="none" stroke="#231f20" stroke-miterlimit="10" stroke-width="0.5"/>
    <line x1="89.987" y1="-3203.969" x2="89.987" y2="1655.992" fill="none" stroke="#231f20" stroke-miterlimit="10" stroke-width="0.25"/>
    <rect x="107.862" y="-3203.969" width="0.25" height="4859.961" fill="#231f20"/>
    <line x1="125.987" y1="-3203.969" x2="125.987" y2="1655.992" fill="none" stroke="#231f20" stroke-miterlimit="10" stroke-width="0.25"/>
    <line x1="143.987" y1="-3203.969" x2="143.987" y2="1655.992" fill="none" stroke="#231f20" stroke-miterlimit="10" stroke-width="0.5"/>
    <line x1="161.987" y1="-3203.969" x2="161.987" y2="1655.992" fill="none" stroke="#231f20" stroke-miterlimit="10" stroke-width="0.25"/>
    <rect x="179.862" y="-3203.969" width="0.25" height="4859.961" fill="#231f20"/>
    <line x1="197.987" y1="-3203.969" x2="197.987" y2="1655.992" fill="none" stroke="#231f20" stroke-miterlimit="10" stroke-width="0.25"/>
    <line x1="215.987" y1="-3203.969" x2="215.987" y2="1655.992" fill="none" stroke="#231f20" stroke-miterlimit="10" stroke-width="0.5"/>
    <line x1="233.987" y1="-3203.969" x2="233.987" y2="1655.992" fill="none" stroke="#231f20" stroke-miterlimit="10" stroke-width="0.25"/>
    <rect x="251.862" y="-3203.969" width="0.25" height="4859.961" fill="#231f20"/>
    <line x1="269.987" y1="-3203.969" x2="269.987" y2="1655.992" fill="none" stroke="#231f20" stroke-miterlimit="10" stroke-width="0.25"/>
    <line x1="287.987" y1="-3203.969" x2="287.987" y2="1655.992" fill="none" stroke="#231f20" stroke-miterlimit="10" stroke-width="0.5"/>
    <line x1="305.987" y1="-3203.969" x2="305.987" y2="1655.992" fill="none" stroke="#231f20" stroke-miterlimit="10" stroke-width="0.25"/>
    <rect x="323.862" y="-3203.969" width="0.25" height="4859.961" fill="#231f20"/>
    <line x1="341.987" y1="-3203.969" x2="341.987" y2="1655.992" fill="none" stroke="#231f20" stroke-miterlimit="10" stroke-width="0.25"/>
    <line x1="359.987" y1="-3203.969" x2="359.987" y2="1655.992" fill="none" stroke="#231f20" stroke-miterlimit="10" stroke-width="0.5"/>
    <line x1="377.987" y1="-3203.969" x2="377.987" y2="1655.992" fill="none" stroke="#231f20" stroke-miterlimit="10" stroke-width="0.25"/>
    <rect x="395.862" y="-3203.969" width="0.25" height="4859.961" fill="#231f20"/>
    <line x1="413.987" y1="-3203.969" x2="413.987" y2="1655.992" fill="none" stroke="#231f20" stroke-miterlimit="10" stroke-width="0.25"/>
    <line x1="431.987" y1="-3203.969" x2="431.987" y2="1655.992" fill="none" stroke="#231f20" stroke-miterlimit="10" stroke-width="0.5"/>
    <line x1="449.987" y1="-3203.969" x2="449.987" y2="1655.992" fill="none" stroke="#231f20" stroke-miterlimit="10" stroke-width="0.25"/>
    <rect x="467.862" y="-3203.969" width="0.25" height="4859.961" fill="#231f20"/>
    <line x1="485.987" y1="-3203.969" x2="485.987" y2="1655.992" fill="none" stroke="#231f20" stroke-miterlimit="10" stroke-width="0.25"/>
    <line x1="503.987" y1="-3203.969" x2="503.987" y2="1655.992" fill="none" stroke="#231f20" stroke-miterlimit="10" stroke-width="0.5"/>
    <line x1="521.987" y1="-3203.969" x2="521.987" y2="1655.992" fill="none" stroke="#231f20" stroke-miterlimit="10" stroke-width="0.25"/>
    <rect x="539.862" y="-3203.969" width="0.25" height="4859.961" fill="#231f20"/>
    <line x1="557.987" y1="-3203.969" x2="557.987" y2="1655.992" fill="none" stroke="#231f20" stroke-miterlimit="10" stroke-width="0.25"/>
    <line x1="575.987" y1="-3203.969" x2="575.987" y2="1655.992" fill="none" stroke="#231f20" stroke-miterlimit="10" stroke-width="0.5"/>
    <line x1="593.987" y1="-3203.969" x2="593.987" y2="1655.992" fill="none" stroke="#231f20" stroke-miterlimit="10" stroke-width="0.25"/>
    <rect x="611.862" y="-3203.969" width="0.25" height="4859.961" fill="#231f20"/>
    <line x1="629.987" y1="-3203.969" x2="629.987" y2="1655.992" fill="none" stroke="#231f20" stroke-miterlimit="10" stroke-width="0.25"/>
    <line x1="647.987" y1="-3203.969" x2="647.987" y2="1655.992" fill="none" stroke="#231f20" stroke-miterlimit="10" stroke-width="0.5"/>
    <line x1="665.987" y1="-3203.969" x2="665.987" y2="1655.992" fill="none" stroke="#231f20" stroke-miterlimit="10" stroke-width="0.25"/>
    <rect x="683.862" y="-3203.969" width="0.25" height="4859.961" fill="#231f20"/>
    <line x1="701.987" y1="-3203.969" x2="701.987" y2="1655.992" fill="none" stroke="#231f20" stroke-miterlimit="10" stroke-width="0.25"/>
    <line x1="719.987" y1="-3203.969" x2="719.987" y2="1655.992" fill="none" stroke="#231f20" stroke-miterlimit="10" stroke-width="0.5"/>
    <line x1="737.987" y1="-3203.969" x2="737.987" y2="1655.992" fill="none" stroke="#231f20" stroke-miterlimit="10" stroke-width="0.25"/>
    <rect x="755.862" y="-3203.969" width="0.25" height="4859.961" fill="#231f20"/>
    <line x1="773.987" y1="-3203.969" x2="773.987" y2="1655.992" fill="none" stroke="#231f20" stroke-miterlimit="10" stroke-width="0.25"/>
    <line x1="791.987" y1="-3203.969" x2="791.987" y2="1655.992" fill="none" stroke="#231f20" stroke-miterlimit="10" stroke-width="0.5"/>
    <line x1="809.987" y1="-3203.969" x2="809.987" y2="1655.992" fill="none" stroke="#231f20" stroke-miterlimit="10" stroke-width="0.25"/>
    <rect x="827.862" y="-3203.969" width="0.25" height="4859.961" fill="#231f20"/>
    <line x1="845.987" y1="-3203.969" x2="845.987" y2="1655.992" fill="none" stroke="#231f20" stroke-miterlimit="10" stroke-width="0.25"/>
    <line x1="863.987" y1="-3203.969" x2="863.987" y2="1655.992" fill="none" stroke="#231f20" stroke-miterlimit="10" stroke-width="0.5"/>
    <line x1="881.987" y1="-3203.969" x2="881.987" y2="1655.992" fill="none" stroke="#231f20" stroke-miterlimit="10" stroke-width="0.25"/>
    <rect x="899.862" y="-3203.969" width="0.25" height="4859.961" fill="#231f20"/>
    <line x1="917.987" y1="-3203.969" x2="917.987" y2="1655.992" fill="none" stroke="#231f20" stroke-miterlimit="10" stroke-width="0.25"/>
    <line x1="935.987" y1="-3203.969" x2="935.987" y2="1655.992" fill="none" stroke="#231f20" stroke-miterlimit="10" stroke-width="0.5"/>
    <line x1="953.987" y1="-3203.969" x2="953.987" y2="1655.992" fill="none" stroke="#231f20" stroke-miterlimit="10" stroke-width="0.25"/>
    <rect x="971.862" y="-3203.969" width="0.25" height="4859.961" fill="#231f20"/>
    <line x1="989.987" y1="-3203.969" x2="989.987" y2="1655.992" fill="none" stroke="#231f20" stroke-miterlimit="10" stroke-width="0.25"/>
    <line x1="1007.987" y1="-3203.969" x2="1007.987" y2="1655.992" fill="none" stroke="#231f20" stroke-miterlimit="10" stroke-width="0.5"/>
    <line x1="1025.987" y1="-3203.969" x2="1025.987" y2="1655.992" fill="none" stroke="#231f20" stroke-miterlimit="10" stroke-width="0.25"/>
    <rect x="1043.862" y="-3203.969" width="0.25" height="4859.961" fill="#231f20"/>
    <line x1="1061.987" y1="-3203.969" x2="1061.987" y2="1655.992" fill="none" stroke="#231f20" stroke-miterlimit="10" stroke-width="0.25"/>
    <line x1="1079.987" y1="-3203.969" x2="1079.987" y2="1655.992" fill="none" stroke="#231f20" stroke-miterlimit="10" stroke-width="0.5"/>
    <line x1="1097.987" y1="-3203.969" x2="1097.987" y2="1655.992" fill="none" stroke="#231f20" stroke-miterlimit="10" stroke-width="0.25"/>
    <rect x="1115.862" y="-3203.969" width="0.25" height="4859.961" fill="#231f20"/>
    <line x1="1133.987" y1="-3203.969" x2="1133.987" y2="1655.992" fill="none" stroke="#231f20" stroke-miterlimit="10" stroke-width="0.25"/>
    <line x1="1151.987" y1="-3203.969" x2="1151.987" y2="1655.992" fill="none" stroke="#231f20" stroke-miterlimit="10" stroke-width="0.5"/>
    <line x1="1169.987" y1="-3203.969" x2="1169.987" y2="1655.992" fill="none" stroke="#231f20" stroke-miterlimit="10" stroke-width="0.25"/>
    <rect x="1187.862" y="-3203.969" width="0.25" height="4859.961" fill="#231f20"/>
    <line x1="1205.987" y1="-3203.969" x2="1205.987" y2="1655.992" fill="none" stroke="#231f20" stroke-miterlimit="10" stroke-width="0.25"/>
    <line x1="1223.987" y1="-3203.969" x2="1223.987" y2="1655.992" fill="none" stroke="#231f20" stroke-miterlimit="10" stroke-width="0.5"/>
    <line x1="1241.987" y1="-3203.969" x2="1241.987" y2="1655.992" fill="none" stroke="#231f20" stroke-miterlimit="10" stroke-width="0.25"/>
    <rect x="1259.862" y="-3203.969" width="0.25" height="4859.961" fill="#231f20"/>
    <line x1="1277.987" y1="-3203.969" x2="1277.987" y2="1655.992" fill="none" stroke="#231f20" stroke-miterlimit="10" stroke-width="0.25"/>
    <line x1="1295.987" y1="-3203.969" x2="1295.987" y2="1655.992" fill="none" stroke="#231f20" stroke-miterlimit="10" stroke-width="0.5"/>
    <line x1="1313.987" y1="-3203.969" x2="1313.987" y2="1655.992" fill="none" stroke="#231f20" stroke-miterlimit="10" stroke-width="0.25"/>
    <rect x="1331.862" y="-3203.969" width="0.25" height="4859.961" fill="#231f20"/>
    <line x1="1349.987" y1="-3203.969" x2="1349.987" y2="1655.992" fill="none" stroke="#231f20" stroke-miterlimit="10" stroke-width="0.25"/>
    <line x1="1367.987" y1="-3203.969" x2="1367.987" y2="1655.992" fill="none" stroke="#231f20" stroke-miterlimit="10" stroke-width="0.5"/>
    <line x1="1385.987" y1="-3203.969" x2="1385.987" y2="1655.992" fill="none" stroke="#231f20" stroke-miterlimit="10" stroke-width="0.25"/>
    <rect x="1403.862" y="-3203.969" width="0.25" height="4859.961" fill="#231f20"/>
    <line x1="1421.987" y1="-3203.969" x2="1421.987" y2="1655.992" fill="none" stroke="#231f20" stroke-miterlimit="10" stroke-width="0.25"/>
    <line x1="1439.987" y1="-3203.969" x2="1439.987" y2="1655.992" fill="none" stroke="#231f20" stroke-miterlimit="10" stroke-width="0.5"/>
    <line x1="1457.987" y1="-3203.969" x2="1457.987" y2="1655.992" fill="none" stroke="#231f20" stroke-miterlimit="10" stroke-width="0.25"/>
    <rect x="1475.862" y="-3203.969" width="0.25" height="4859.961" fill="#231f20"/>
    <line x1="1493.987" y1="-3203.969" x2="1493.987" y2="1655.992" fill="none" stroke="#231f20" stroke-miterlimit="10" stroke-width="0.25"/>
    <line x1="1511.987" y1="-3203.969" x2="1511.987" y2="1655.992" fill="none" stroke="#231f20" stroke-miterlimit="10" stroke-width="0.5"/>
    <line x1="1529.987" y1="-3203.969" x2="1529.987" y2="1655.992" fill="none" stroke="#231f20" stroke-miterlimit="10" stroke-width="0.25"/>
    <rect x="1547.862" y="-3203.969" width="0.25" height="4859.961" fill="#231f20"/>
    <line x1="1565.987" y1="-3203.969" x2="1565.987" y2="1655.992" fill="none" stroke="#231f20" stroke-miterlimit="10" stroke-width="0.25"/>
    <line x1="1583.987" y1="-3203.969" x2="1583.987" y2="1655.992" fill="none" stroke="#231f20" stroke-miterlimit="10" stroke-width="0.5"/>
    <line x1="1601.987" y1="-3203.969" x2="1601.987" y2="1655.992" fill="none" stroke="#231f20" stroke-miterlimit="10" stroke-width="0.25"/>
    <rect x="1619.862" y="-3203.969" width="0.25" height="4859.961" fill="#231f20"/>
    <line x1="1637.987" y1="-3203.969" x2="1637.987" y2="1655.992" fill="none" stroke="#231f20" stroke-miterlimit="10" stroke-width="0.25"/>
    <line x1="1655.987" y1="-3203.969" x2="1655.987" y2="1655.992" fill="none" stroke="#231f20" stroke-miterlimit="10" stroke-width="0.5"/>
    <line x1="1673.987" y1="-3203.969" x2="1673.987" y2="1655.992" fill="none" stroke="#231f20" stroke-miterlimit="10" stroke-width="0.25"/>
    <rect x="1691.862" y="-3203.969" width="0.25" height="4859.961" fill="#231f20"/>
    <line x1="1709.987" y1="-3203.969" x2="1709.987" y2="1655.992" fill="none" stroke="#231f20" stroke-miterlimit="10" stroke-width="0.25"/>
    <line x1="1727.987" y1="-3203.969" x2="1727.987" y2="1655.992" fill="none" stroke="#231f20" stroke-miterlimit="10" stroke-width="0.5"/>
    <line x1="1745.987" y1="-3203.969" x2="1745.987" y2="1655.992" fill="none" stroke="#231f20" stroke-miterlimit="10" stroke-width="0.25"/>
    <rect x="1763.862" y="-3203.969" width="0.25" height="4859.961" fill="#231f20"/>
    <line x1="1781.987" y1="-3203.969" x2="1781.987" y2="1655.992" fill="none" stroke="#231f20" stroke-miterlimit="10" stroke-width="0.25"/>
    <line x1="1799.987" y1="-3203.969" x2="1799.987" y2="1655.992" fill="none" stroke="#231f20" stroke-miterlimit="10" stroke-width="0.5"/>
    <line x1="1817.987" y1="-3203.969" x2="1817.987" y2="1655.992" fill="none" stroke="#231f20" stroke-miterlimit="10" stroke-width="0.25"/>
    <rect x="1835.862" y="-3203.969" width="0.25" height="4859.961" fill="#231f20"/>
    <line x1="1853.987" y1="-3203.969" x2="1853.987" y2="1655.992" fill="none" stroke="#231f20" stroke-miterlimit="10" stroke-width="0.25"/>
    <line x1="1871.987" y1="-3203.969" x2="1871.987" y2="1655.992" fill="none" stroke="#231f20" stroke-miterlimit="10" stroke-width="0.5"/>
    <line x1="1889.987" y1="-3203.969" x2="1889.987" y2="1655.992" fill="none" stroke="#231f20" stroke-miterlimit="10" stroke-width="0.25"/>
    <rect x="1907.862" y="-3203.969" width="0.25" height="4859.961" fill="#231f20"/>
    <line x1="1925.987" y1="-3203.969" x2="1925.987" y2="1655.992" fill="none" stroke="#231f20" stroke-miterlimit="10" stroke-width="0.25"/>
    <line x1="1943.987" y1="-3203.969" x2="1943.987" y2="1655.992" fill="none" stroke="#231f20" stroke-miterlimit="10" stroke-width="0.5"/>
    <line x1="1961.987" y1="-3203.969" x2="1961.987" y2="1655.992" fill="none" stroke="#231f20" stroke-miterlimit="10" stroke-width="0.25"/>
    <rect x="1979.862" y="-3203.969" width="0.25" height="4859.961" fill="#231f20"/>
    <line x1="1997.987" y1="-3203.969" x2="1997.987" y2="1655.992" fill="none" stroke="#231f20" stroke-miterlimit="10" stroke-width="0.25"/>
    <line x1="2015.987" y1="-3203.969" x2="2015.987" y2="1655.992" fill="none" stroke="#231f20" stroke-miterlimit="10" stroke-width="0.5"/>
    <line x1="2033.987" y1="-3203.969" x2="2033.987" y2="1655.992" fill="none" stroke="#231f20" stroke-miterlimit="10" stroke-width="0.25"/>
    <rect x="2051.862" y="-3203.969" width="0.25" height="4859.961" fill="#231f20"/>
    <line x1="2069.987" y1="-3203.969" x2="2069.987" y2="1655.992" fill="none" stroke="#231f20" stroke-miterlimit="10" stroke-width="0.25"/>
    <line x1="2087.987" y1="-3203.969" x2="2087.987" y2="1655.992" fill="none" stroke="#231f20" stroke-miterlimit="10" stroke-width="0.5"/>
    <line x1="2105.987" y1="-3203.969" x2="2105.987" y2="1655.992" fill="none" stroke="#231f20" stroke-miterlimit="10" stroke-width="0.25"/>
    <rect x="2123.862" y="-3203.969" width="0.25" height="4859.961" fill="#231f20"/>
    <line x1="2141.987" y1="-3203.969" x2="2141.987" y2="1655.992" fill="none" stroke="#231f20" stroke-miterlimit="10" stroke-width="0.25"/>
    <line x1="2159.987" y1="-3203.969" x2="2159.987" y2="1655.992" fill="none" stroke="#231f20" stroke-miterlimit="10" stroke-width="0.5"/>
    <line x1="2177.987" y1="-3203.969" x2="2177.987" y2="1655.992" fill="none" stroke="#231f20" stroke-miterlimit="10" stroke-width="0.25"/>
    <rect x="2195.862" y="-3203.969" width="0.25" height="4859.961" fill="#231f20"/>
    <line x1="2213.987" y1="-3203.969" x2="2213.987" y2="1655.992" fill="none" stroke="#231f20" stroke-miterlimit="10" stroke-width="0.25"/>
    <line x1="2231.987" y1="-3203.969" x2="2231.987" y2="1655.992" fill="none" stroke="#231f20" stroke-miterlimit="10" stroke-width="0.5"/>
    <line x1="2249.987" y1="-3203.969" x2="2249.987" y2="1655.992" fill="none" stroke="#231f20" stroke-miterlimit="10" stroke-width="0.25"/>
    <rect x="2267.862" y="-3203.969" width="0.25" height="4859.961" fill="#231f20"/>
    <line x1="2285.987" y1="-3203.969" x2="2285.987" y2="1655.992" fill="none" stroke="#231f20" stroke-miterlimit="10" stroke-width="0.25"/>
    <line x1="2303.987" y1="-3203.969" x2="2303.987" y2="1655.992" fill="none" stroke="#231f20" stroke-miterlimit="10" stroke-width="0.5"/>
    <line x1="2321.987" y1="-3203.969" x2="2321.987" y2="1655.992" fill="none" stroke="#231f20" stroke-miterlimit="10" stroke-width="0.25"/>
    <rect x="2339.862" y="-3203.969" width="0.25" height="4859.961" fill="#231f20"/>
    <line x1="2357.987" y1="-3203.969" x2="2357.987" y2="1655.992" fill="none" stroke="#231f20" stroke-miterlimit="10" stroke-width="0.25"/>
    <line x1="2375.987" y1="-3203.969" x2="2375.987" y2="1655.992" fill="none" stroke="#231f20" stroke-miterlimit="10" stroke-width="0.5"/>
    <line x1="2393.987" y1="-3203.969" x2="2393.987" y2="1655.992" fill="none" stroke="#231f20" stroke-miterlimit="10" stroke-width="0.25"/>
    <rect x="2411.862" y="-3203.969" width="0.25" height="4859.961" fill="#231f20"/>
    <line x1="2429.987" y1="-3203.969" x2="2429.987" y2="1655.992" fill="none" stroke="#231f20" stroke-miterlimit="10" stroke-width="0.25"/>
    <line x1="2447.987" y1="-3203.969" x2="2447.987" y2="1655.992" fill="none" stroke="#231f20" stroke-miterlimit="10" stroke-width="0.5"/>
    <line x1="2465.987" y1="-3203.969" x2="2465.987" y2="1655.992" fill="none" stroke="#231f20" stroke-miterlimit="10" stroke-width="0.25"/>
    <rect x="2483.862" y="-3203.969" width="0.25" height="4859.961" fill="#231f20"/>
    <line x1="2501.987" y1="-3203.969" x2="2501.987" y2="1655.992" fill="none" stroke="#231f20" stroke-miterlimit="10" stroke-width="0.25"/>
    <line x1="2519.987" y1="-3203.969" x2="2519.987" y2="1655.992" fill="none" stroke="#231f20" stroke-miterlimit="10" stroke-width="0.5"/>
    <line x1="2537.987" y1="-3203.969" x2="2537.987" y2="1655.992" fill="none" stroke="#231f20" stroke-miterlimit="10" stroke-width="0.25"/>
    <rect x="2555.862" y="-3203.969" width="0.25" height="4859.961" fill="#231f20"/>
    <line x1="2573.987" y1="-3203.969" x2="2573.987" y2="1655.992" fill="none" stroke="#231f20" stroke-miterlimit="10" stroke-width="0.25"/>
    <line x1="2591.987" y1="-3203.969" x2="2591.987" y2="1655.992" fill="none" stroke="#231f20" stroke-miterlimit="10" stroke-width="0.5"/>
    <line x1="2609.987" y1="-3203.969" x2="2609.987" y2="1655.992" fill="none" stroke="#231f20" stroke-miterlimit="10" stroke-width="0.25"/>
    <rect x="2627.862" y="-3203.969" width="0.25" height="4859.961" fill="#231f20"/>
    <line x1="2645.987" y1="-3203.969" x2="2645.987" y2="1655.992" fill="none" stroke="#231f20" stroke-miterlimit="10" stroke-width="0.25"/>
    <line x1="2663.987" y1="-3203.969" x2="2663.987" y2="1655.992" fill="none" stroke="#231f20" stroke-miterlimit="10" stroke-width="0.5"/>
    <line x1="2681.987" y1="-3203.969" x2="2681.987" y2="1655.992" fill="none" stroke="#231f20" stroke-miterlimit="10" stroke-width="0.25"/>
    <rect x="2699.862" y="-3203.969" width="0.25" height="4859.961" fill="#231f20"/>
    <line x1="2717.987" y1="-3203.969" x2="2717.987" y2="1655.992" fill="none" stroke="#231f20" stroke-miterlimit="10" stroke-width="0.25"/>
    <line x1="2735.987" y1="-3203.969" x2="2735.987" y2="1655.992" fill="none" stroke="#231f20" stroke-miterlimit="10" stroke-width="0.5"/>
    <line x1="2753.987" y1="-3203.969" x2="2753.987" y2="1655.992" fill="none" stroke="#231f20" stroke-miterlimit="10" stroke-width="0.25"/>
    <rect x="2771.862" y="-3203.969" width="0.25" height="4859.961" fill="#231f20"/>
    <line x1="2789.987" y1="-3203.969" x2="2789.987" y2="1655.992" fill="none" stroke="#231f20" stroke-miterlimit="10" stroke-width="0.25"/>
    <line x1="2807.987" y1="-3203.969" x2="2807.987" y2="1655.992" fill="none" stroke="#231f20" stroke-miterlimit="10" stroke-width="0.5"/>
    <line x1="2825.987" y1="-3203.969" x2="2825.987" y2="1655.992" fill="none" stroke="#231f20" stroke-miterlimit="10" stroke-width="0.25"/>
    <rect x="2843.862" y="-3203.969" width="0.25" height="4859.961" fill="#231f20"/>
    <line x1="2861.987" y1="-3203.969" x2="2861.987" y2="1655.992" fill="none" stroke="#231f20" stroke-miterlimit="10" stroke-width="0.25"/>
    <line x1="2879.987" y1="-3203.969" x2="2879.987" y2="1655.992" fill="none" stroke="#231f20" stroke-miterlimit="10" stroke-width="0.5"/>
    <line x1="2897.987" y1="-3203.969" x2="2897.987" y2="1655.992" fill="none" stroke="#231f20" stroke-miterlimit="10" stroke-width="0.25"/>
    <rect x="2915.862" y="-3203.969" width="0.25" height="4859.961" fill="#231f20"/>
    <line x1="2933.987" y1="-3203.969" x2="2933.987" y2="1655.992" fill="none" stroke="#231f20" stroke-miterlimit="10" stroke-width="0.25"/>
    <line x1="2951.987" y1="-3203.969" x2="2951.987" y2="1655.992" fill="none" stroke="#231f20" stroke-miterlimit="10" stroke-width="0.5"/>
    <line x1="2969.987" y1="-3203.969" x2="2969.987" y2="1655.992" fill="none" stroke="#231f20" stroke-miterlimit="10" stroke-width="0.25"/>
    <rect x="2987.862" y="-3203.969" width="0.25" height="4859.961" fill="#231f20"/>
    <line x1="3005.987" y1="-3203.969" x2="3005.987" y2="1655.992" fill="none" stroke="#231f20" stroke-miterlimit="10" stroke-width="0.25"/>
    <line x1="3023.987" y1="-3203.969" x2="3023.987" y2="1655.992" fill="none" stroke="#231f20" stroke-miterlimit="10" stroke-width="0.5"/>
    <line x1="3041.987" y1="-3203.969" x2="3041.987" y2="1655.992" fill="none" stroke="#231f20" stroke-miterlimit="10" stroke-width="0.25"/>
    <rect x="3059.862" y="-3203.969" width="0.25" height="4859.961" fill="#231f20"/>
    <line x1="3077.987" y1="-3203.969" x2="3077.987" y2="1655.992" fill="none" stroke="#231f20" stroke-miterlimit="10" stroke-width="0.25"/>
    <line x1="3095.987" y1="-3203.969" x2="3095.987" y2="1655.992" fill="none" stroke="#231f20" stroke-miterlimit="10" stroke-width="0.5"/>
    <line x1="3113.987" y1="-3203.969" x2="3113.987" y2="1655.992" fill="none" stroke="#231f20" stroke-miterlimit="10" stroke-width="0.25"/>
    <rect x="3131.862" y="-3203.969" width="0.25" height="4859.961" fill="#231f20"/>
    <line x1="3149.987" y1="-3203.969" x2="3149.987" y2="1655.992" fill="none" stroke="#231f20" stroke-miterlimit="10" stroke-width="0.25"/>
    <line x1="3167.987" y1="-3203.969" x2="3167.987" y2="1655.992" fill="none" stroke="#231f20" stroke-miterlimit="10" stroke-width="0.5"/>
    <line x1="-377.999" y1="630" x2="8135.998" y2="630" fill="none" stroke="#231f20" stroke-miterlimit="10" stroke-width="0.5"/>
    <line x1="-377.999" y1="612" x2="8135.998" y2="612" fill="none" stroke="#231f20" stroke-miterlimit="10" stroke-width="0.25"/>
    <rect x="-377.999" y="593.875" width="8513.997" height="0.25" fill="#231f20"/>
    <line x1="-377.999" y1="576" x2="8135.998" y2="576" fill="none" stroke="#231f20" stroke-miterlimit="10" stroke-width="0.25"/>
    <line x1="-377.999" y1="558" x2="8135.998" y2="558" fill="none" stroke="#231f20" stroke-miterlimit="10" stroke-width="0.5"/>
    <line x1="-377.999" y1="540" x2="8135.998" y2="540" fill="none" stroke="#231f20" stroke-miterlimit="10" stroke-width="0.25"/>
    <rect x="-377.999" y="521.875" width="8513.997" height="0.25" fill="#231f20"/>
    <line x1="-377.999" y1="504" x2="8135.998" y2="504" fill="none" stroke="#231f20" stroke-miterlimit="10" stroke-width="0.25"/>
    <line x1="-377.999" y1="486" x2="8135.998" y2="486" fill="none" stroke="#231f20" stroke-miterlimit="10" stroke-width="0.5"/>
    <line x1="-377.999" y1="468" x2="8135.998" y2="468" fill="none" stroke="#231f20" stroke-miterlimit="10" stroke-width="0.25"/>
    <rect x="-377.999" y="449.875" width="8513.997" height="0.25" fill="#231f20"/>
    <line x1="-377.999" y1="432" x2="8135.998" y2="432" fill="none" stroke="#231f20" stroke-miterlimit="10" stroke-width="0.25"/>
    <line x1="-377.999" y1="414" x2="8135.998" y2="414" fill="none" stroke="#231f20" stroke-miterlimit="10" stroke-width="0.5"/>
    <line x1="-377.999" y1="396" x2="8135.998" y2="396" fill="none" stroke="#231f20" stroke-miterlimit="10" stroke-width="0.25"/>
    <rect x="-377.999" y="377.875" width="8513.997" height="0.25" fill="#231f20"/>
    <line x1="-377.999" y1="360" x2="8135.998" y2="360" fill="none" stroke="#231f20" stroke-miterlimit="10" stroke-width="0.25"/>
    <line x1="-377.999" y1="342" x2="8135.998" y2="342" fill="none" stroke="#231f20" stroke-miterlimit="10" stroke-width="0.5"/>
    <line x1="-377.999" y1="324" x2="8135.998" y2="324" fill="none" stroke="#231f20" stroke-miterlimit="10" stroke-width="0.25"/>
    <rect x="-377.999" y="305.875" width="8513.997" height="0.25" fill="#231f20"/>
    <line x1="-377.999" y1="288" x2="8135.998" y2="288" fill="none" stroke="#231f20" stroke-miterlimit="10" stroke-width="0.25"/>
    <line x1="-377.999" y1="270" x2="8135.998" y2="270" fill="none" stroke="#231f20" stroke-miterlimit="10" stroke-width="0.5"/>
    <line x1="-377.999" y1="252" x2="8135.998" y2="252" fill="none" stroke="#231f20" stroke-miterlimit="10" stroke-width="0.25"/>
    <rect x="-377.999" y="233.875" width="8513.997" height="0.25" fill="#231f20"/>
    <line x1="-377.999" y1="216" x2="8135.998" y2="216" fill="none" stroke="#231f20" stroke-miterlimit="10" stroke-width="0.25"/>
    <line x1="-377.999" y1="198" x2="8135.998" y2="198" fill="none" stroke="#231f20" stroke-miterlimit="10" stroke-width="0.5"/>
    <line x1="-377.999" y1="180" x2="8135.998" y2="180" fill="none" stroke="#231f20" stroke-miterlimit="10" stroke-width="0.25"/>
    <rect x="-377.999" y="161.875" width="8513.997" height="0.25" fill="#231f20"/>
    <line x1="-377.999" y1="144" x2="8135.998" y2="144" fill="none" stroke="#231f20" stroke-miterlimit="10" stroke-width="0.25"/>
    <line x1="-377.999" y1="126" x2="8135.998" y2="126" fill="none" stroke="#231f20" stroke-miterlimit="10" stroke-width="0.5"/>
    <line x1="-377.999" y1="108" x2="8135.998" y2="108" fill="none" stroke="#231f20" stroke-miterlimit="10" stroke-width="0.25"/>
    <rect x="-377.999" y="89.875" width="8513.997" height="0.25" fill="#231f20"/>
    <line x1="-377.999" y1="72" x2="8135.998" y2="72" fill="none" stroke="#231f20" stroke-miterlimit="10" stroke-width="0.25"/>
    <line x1="-377.999" y1="54" x2="8135.998" y2="54" fill="none" stroke="#231f20" stroke-miterlimit="10" stroke-width="0.5"/>
    <line x1="-377.999" y1="36" x2="8135.998" y2="36" fill="none" stroke="#231f20" stroke-miterlimit="10" stroke-width="0.25"/>
    <rect x="-377.999" y="17.875" width="8513.997" height="0.25" fill="#231f20"/>
    <line x1="-377.999" x2="8135.998" fill="none" stroke="#231f20" stroke-miterlimit="10" stroke-width="0.25"/>
  </g>
</svg>
